<?xml version="1.0" encoding="UTF-8" standalone="no"?>
<!DOCTYPE svg PUBLIC "-//W3C//DTD SVG 1.1//EN"
 "http://www.w3.org/Graphics/SVG/1.1/DTD/svg11.dtd">
<!-- Generated by graphviz version 2.38.0 (20140413.2041)
 -->
<!-- Title: Tree Pages: 1 -->
<svg width="918pt" height="581pt"
 viewBox="0.00 0.00 918.00 581.00" xmlns="http://www.w3.org/2000/svg" xmlns:xlink="http://www.w3.org/1999/xlink">
<g id="graph0" class="graph" transform="scale(1 1) rotate(0) translate(4 577)">
<title>Tree</title>
<polygon fill="white" stroke="none" points="-4,4 -4,-577 914,-577 914,4 -4,4"/>
<!-- 0 -->
<g id="node1" class="node"><title>0</title>
<polygon fill="none" stroke="black" points="557,-573 399,-573 399,-505 557,-505 557,-573"/>
<text text-anchor="middle" x="478" y="-557.8" font-family="Times,serif" font-size="14.00">First &lt;= &#45;1.558</text>
<text text-anchor="middle" x="478" y="-542.8" font-family="Times,serif" font-size="14.00">gini = 0.666</text>
<text text-anchor="middle" x="478" y="-527.8" font-family="Times,serif" font-size="14.00">samples = 112</text>
<text text-anchor="middle" x="478" y="-512.8" font-family="Times,serif" font-size="14.00">value = [35, 38, 39]</text>
</g>
<!-- 1 -->
<g id="node2" class="node"><title>1</title>
<polygon fill="none" stroke="black" points="467,-461.5 327,-461.5 327,-408.5 467,-408.5 467,-461.5"/>
<text text-anchor="middle" x="397" y="-446.3" font-family="Times,serif" font-size="14.00">gini = 0.0</text>
<text text-anchor="middle" x="397" y="-431.3" font-family="Times,serif" font-size="14.00">samples = 35</text>
<text text-anchor="middle" x="397" y="-416.3" font-family="Times,serif" font-size="14.00">value = [35, 0, 0]</text>
</g>
<!-- 0&#45;&gt;1 -->
<g id="edge1" class="edge"><title>0&#45;&gt;1</title>
<path fill="none" stroke="black" d="M451.702,-504.884C442.706,-493.556 432.64,-480.88 423.619,-469.521"/>
<polygon fill="black" stroke="black" points="426.226,-467.174 417.266,-461.52 420.744,-471.528 426.226,-467.174"/>
<text text-anchor="middle" x="414.416" y="-482.657" font-family="Times,serif" font-size="14.00">True</text>
</g>
<!-- 2 -->
<g id="node3" class="node"><title>2</title>
<polygon fill="none" stroke="black" points="634.5,-469 485.5,-469 485.5,-401 634.5,-401 634.5,-469"/>
<text text-anchor="middle" x="560" y="-453.8" font-family="Times,serif" font-size="14.00">First &lt;= 1.3844</text>
<text text-anchor="middle" x="560" y="-438.8" font-family="Times,serif" font-size="14.00">gini = 0.4999</text>
<text text-anchor="middle" x="560" y="-423.8" font-family="Times,serif" font-size="14.00">samples = 77</text>
<text text-anchor="middle" x="560" y="-408.8" font-family="Times,serif" font-size="14.00">value = [0, 38, 39]</text>
</g>
<!-- 0&#45;&gt;2 -->
<g id="edge2" class="edge"><title>0&#45;&gt;2</title>
<path fill="none" stroke="black" d="M504.623,-504.884C511.712,-496.065 519.458,-486.43 526.85,-477.235"/>
<polygon fill="black" stroke="black" points="529.692,-479.286 533.23,-469.299 524.236,-474.9 529.692,-479.286"/>
<text text-anchor="middle" x="535.931" y="-490.453" font-family="Times,serif" font-size="14.00">False</text>
</g>
<!-- 3 -->
<g id="node4" class="node"><title>3</title>
<polygon fill="none" stroke="black" points="520.5,-365 369.5,-365 369.5,-297 520.5,-297 520.5,-365"/>
<text text-anchor="middle" x="445" y="-349.8" font-family="Times,serif" font-size="14.00">Second &lt;= 0.7586</text>
<text text-anchor="middle" x="445" y="-334.8" font-family="Times,serif" font-size="14.00">gini = 0.1761</text>
<text text-anchor="middle" x="445" y="-319.8" font-family="Times,serif" font-size="14.00">samples = 41</text>
<text text-anchor="middle" x="445" y="-304.8" font-family="Times,serif" font-size="14.00">value = [0, 37, 4]</text>
</g>
<!-- 2&#45;&gt;3 -->
<g id="edge3" class="edge"><title>2&#45;&gt;3</title>
<path fill="none" stroke="black" d="M522.663,-400.884C512.319,-391.709 500.978,-381.65 490.236,-372.123"/>
<polygon fill="black" stroke="black" points="492.347,-369.317 482.543,-365.299 487.702,-374.553 492.347,-369.317"/>
</g>
<!-- 12 -->
<g id="node13" class="node"><title>12</title>
<polygon fill="none" stroke="black" points="744,-365 604,-365 604,-297 744,-297 744,-365"/>
<text text-anchor="middle" x="674" y="-349.8" font-family="Times,serif" font-size="14.00">First &lt;= 1.5251</text>
<text text-anchor="middle" x="674" y="-334.8" font-family="Times,serif" font-size="14.00">gini = 0.054</text>
<text text-anchor="middle" x="674" y="-319.8" font-family="Times,serif" font-size="14.00">samples = 36</text>
<text text-anchor="middle" x="674" y="-304.8" font-family="Times,serif" font-size="14.00">value = [0, 1, 35]</text>
</g>
<!-- 2&#45;&gt;12 -->
<g id="edge12" class="edge"><title>2&#45;&gt;12</title>
<path fill="none" stroke="black" d="M597.013,-400.884C607.266,-391.709 618.509,-381.65 629.157,-372.123"/>
<polygon fill="black" stroke="black" points="631.664,-374.576 636.783,-365.299 626.997,-369.359 631.664,-374.576"/>
</g>
<!-- 4 -->
<g id="node5" class="node"><title>4</title>
<polygon fill="none" stroke="black" points="295,-261 155,-261 155,-193 295,-193 295,-261"/>
<text text-anchor="middle" x="225" y="-245.8" font-family="Times,serif" font-size="14.00">First &lt;= 1.2396</text>
<text text-anchor="middle" x="225" y="-230.8" font-family="Times,serif" font-size="14.00">gini = 0.0555</text>
<text text-anchor="middle" x="225" y="-215.8" font-family="Times,serif" font-size="14.00">samples = 35</text>
<text text-anchor="middle" x="225" y="-200.8" font-family="Times,serif" font-size="14.00">value = [0, 34, 1]</text>
</g>
<!-- 3&#45;&gt;4 -->
<g id="edge4" class="edge"><title>3&#45;&gt;4</title>
<path fill="none" stroke="black" d="M373.572,-296.884C351.518,-286.658 327.095,-275.335 304.529,-264.872"/>
<polygon fill="black" stroke="black" points="305.863,-261.633 295.318,-260.602 302.918,-267.984 305.863,-261.633"/>
</g>
<!-- 9 -->
<g id="node10" class="node"><title>9</title>
<polygon fill="none" stroke="black" points="512,-261 378,-261 378,-193 512,-193 512,-261"/>
<text text-anchor="middle" x="445" y="-245.8" font-family="Times,serif" font-size="14.00">First &lt;= 0.3523</text>
<text text-anchor="middle" x="445" y="-230.8" font-family="Times,serif" font-size="14.00">gini = 0.5</text>
<text text-anchor="middle" x="445" y="-215.8" font-family="Times,serif" font-size="14.00">samples = 6</text>
<text text-anchor="middle" x="445" y="-200.8" font-family="Times,serif" font-size="14.00">value = [0, 3, 3]</text>
</g>
<!-- 3&#45;&gt;9 -->
<g id="edge9" class="edge"><title>3&#45;&gt;9</title>
<path fill="none" stroke="black" d="M445,-296.884C445,-288.778 445,-279.982 445,-271.472"/>
<polygon fill="black" stroke="black" points="448.5,-271.299 445,-261.299 441.5,-271.299 448.5,-271.299"/>
</g>
<!-- 5 -->
<g id="node6" class="node"><title>5</title>
<polygon fill="none" stroke="black" points="140,-149.5 0,-149.5 0,-96.5 140,-96.5 140,-149.5"/>
<text text-anchor="middle" x="70" y="-134.3" font-family="Times,serif" font-size="14.00">gini = 0.0</text>
<text text-anchor="middle" x="70" y="-119.3" font-family="Times,serif" font-size="14.00">samples = 31</text>
<text text-anchor="middle" x="70" y="-104.3" font-family="Times,serif" font-size="14.00">value = [0, 31, 0]</text>
</g>
<!-- 4&#45;&gt;5 -->
<g id="edge5" class="edge"><title>4&#45;&gt;5</title>
<path fill="none" stroke="black" d="M174.676,-192.884C156.292,-180.786 135.573,-167.151 117.448,-155.224"/>
<polygon fill="black" stroke="black" points="119.058,-152.093 108.78,-149.52 115.21,-157.941 119.058,-152.093"/>
</g>
<!-- 6 -->
<g id="node7" class="node"><title>6</title>
<polygon fill="none" stroke="black" points="292,-157 158,-157 158,-89 292,-89 292,-157"/>
<text text-anchor="middle" x="225" y="-141.8" font-family="Times,serif" font-size="14.00">First &lt;= 1.2783</text>
<text text-anchor="middle" x="225" y="-126.8" font-family="Times,serif" font-size="14.00">gini = 0.375</text>
<text text-anchor="middle" x="225" y="-111.8" font-family="Times,serif" font-size="14.00">samples = 4</text>
<text text-anchor="middle" x="225" y="-96.8" font-family="Times,serif" font-size="14.00">value = [0, 3, 1]</text>
</g>
<!-- 4&#45;&gt;6 -->
<g id="edge6" class="edge"><title>4&#45;&gt;6</title>
<path fill="none" stroke="black" d="M225,-192.884C225,-184.778 225,-175.982 225,-167.472"/>
<polygon fill="black" stroke="black" points="228.5,-167.299 225,-157.299 221.5,-167.299 228.5,-167.299"/>
</g>
<!-- 7 -->
<g id="node8" class="node"><title>7</title>
<polygon fill="none" stroke="black" points="215.5,-53 84.5,-53 84.5,-0 215.5,-0 215.5,-53"/>
<text text-anchor="middle" x="150" y="-37.8" font-family="Times,serif" font-size="14.00">gini = 0.0</text>
<text text-anchor="middle" x="150" y="-22.8" font-family="Times,serif" font-size="14.00">samples = 1</text>
<text text-anchor="middle" x="150" y="-7.8" font-family="Times,serif" font-size="14.00">value = [0, 0, 1]</text>
</g>
<!-- 6&#45;&gt;7 -->
<g id="edge7" class="edge"><title>6&#45;&gt;7</title>
<path fill="none" stroke="black" d="M198.769,-88.9485C191.654,-79.9834 183.942,-70.2666 176.796,-61.2629"/>
<polygon fill="black" stroke="black" points="179.384,-58.8938 170.426,-53.2367 173.901,-63.2454 179.384,-58.8938"/>
</g>
<!-- 8 -->
<g id="node9" class="node"><title>8</title>
<polygon fill="none" stroke="black" points="364.5,-53 233.5,-53 233.5,-0 364.5,-0 364.5,-53"/>
<text text-anchor="middle" x="299" y="-37.8" font-family="Times,serif" font-size="14.00">gini = 0.0</text>
<text text-anchor="middle" x="299" y="-22.8" font-family="Times,serif" font-size="14.00">samples = 3</text>
<text text-anchor="middle" x="299" y="-7.8" font-family="Times,serif" font-size="14.00">value = [0, 3, 0]</text>
</g>
<!-- 6&#45;&gt;8 -->
<g id="edge8" class="edge"><title>6&#45;&gt;8</title>
<path fill="none" stroke="black" d="M250.882,-88.9485C257.902,-79.9834 265.511,-70.2666 272.561,-61.2629"/>
<polygon fill="black" stroke="black" points="275.437,-63.2679 278.846,-53.2367 269.925,-58.9521 275.437,-63.2679"/>
</g>
<!-- 10 -->
<g id="node11" class="node"><title>10</title>
<polygon fill="none" stroke="black" points="441.5,-149.5 310.5,-149.5 310.5,-96.5 441.5,-96.5 441.5,-149.5"/>
<text text-anchor="middle" x="376" y="-134.3" font-family="Times,serif" font-size="14.00">gini = 0.0</text>
<text text-anchor="middle" x="376" y="-119.3" font-family="Times,serif" font-size="14.00">samples = 3</text>
<text text-anchor="middle" x="376" y="-104.3" font-family="Times,serif" font-size="14.00">value = [0, 3, 0]</text>
</g>
<!-- 9&#45;&gt;10 -->
<g id="edge10" class="edge"><title>9&#45;&gt;10</title>
<path fill="none" stroke="black" d="M422.598,-192.884C415.009,-181.666 406.527,-169.126 398.9,-157.852"/>
<polygon fill="black" stroke="black" points="401.766,-155.842 393.263,-149.52 395.968,-159.764 401.766,-155.842"/>
</g>
<!-- 11 -->
<g id="node12" class="node"><title>11</title>
<polygon fill="none" stroke="black" points="590.5,-149.5 459.5,-149.5 459.5,-96.5 590.5,-96.5 590.5,-149.5"/>
<text text-anchor="middle" x="525" y="-134.3" font-family="Times,serif" font-size="14.00">gini = 0.0</text>
<text text-anchor="middle" x="525" y="-119.3" font-family="Times,serif" font-size="14.00">samples = 3</text>
<text text-anchor="middle" x="525" y="-104.3" font-family="Times,serif" font-size="14.00">value = [0, 0, 3]</text>
</g>
<!-- 9&#45;&gt;11 -->
<g id="edge11" class="edge"><title>9&#45;&gt;11</title>
<path fill="none" stroke="black" d="M470.974,-192.884C479.858,-181.556 489.8,-168.88 498.709,-157.521"/>
<polygon fill="black" stroke="black" points="501.567,-159.548 504.984,-149.52 496.059,-155.228 501.567,-159.548"/>
</g>
<!-- 13 -->
<g id="node14" class="node"><title>13</title>
<polygon fill="none" stroke="black" points="751.5,-261 596.5,-261 596.5,-193 751.5,-193 751.5,-261"/>
<text text-anchor="middle" x="674" y="-245.8" font-family="Times,serif" font-size="14.00">Second &lt;= &#45;0.1499</text>
<text text-anchor="middle" x="674" y="-230.8" font-family="Times,serif" font-size="14.00">gini = 0.375</text>
<text text-anchor="middle" x="674" y="-215.8" font-family="Times,serif" font-size="14.00">samples = 4</text>
<text text-anchor="middle" x="674" y="-200.8" font-family="Times,serif" font-size="14.00">value = [0, 1, 3]</text>
</g>
<!-- 12&#45;&gt;13 -->
<g id="edge13" class="edge"><title>12&#45;&gt;13</title>
<path fill="none" stroke="black" d="M674,-296.884C674,-288.778 674,-279.982 674,-271.472"/>
<polygon fill="black" stroke="black" points="677.5,-271.299 674,-261.299 670.5,-271.299 677.5,-271.299"/>
</g>
<!-- 16 -->
<g id="node17" class="node"><title>16</title>
<polygon fill="none" stroke="black" points="910,-253.5 770,-253.5 770,-200.5 910,-200.5 910,-253.5"/>
<text text-anchor="middle" x="840" y="-238.3" font-family="Times,serif" font-size="14.00">gini = 0.0</text>
<text text-anchor="middle" x="840" y="-223.3" font-family="Times,serif" font-size="14.00">samples = 32</text>
<text text-anchor="middle" x="840" y="-208.3" font-family="Times,serif" font-size="14.00">value = [0, 0, 32]</text>
</g>
<!-- 12&#45;&gt;16 -->
<g id="edge16" class="edge"><title>12&#45;&gt;16</title>
<path fill="none" stroke="black" d="M727.895,-296.884C747.763,-284.676 770.178,-270.903 789.714,-258.899"/>
<polygon fill="black" stroke="black" points="791.78,-261.737 798.468,-253.52 788.115,-255.773 791.78,-261.737"/>
</g>
<!-- 14 -->
<g id="node15" class="node"><title>14</title>
<polygon fill="none" stroke="black" points="739.5,-149.5 608.5,-149.5 608.5,-96.5 739.5,-96.5 739.5,-149.5"/>
<text text-anchor="middle" x="674" y="-134.3" font-family="Times,serif" font-size="14.00">gini = 0.0</text>
<text text-anchor="middle" x="674" y="-119.3" font-family="Times,serif" font-size="14.00">samples = 1</text>
<text text-anchor="middle" x="674" y="-104.3" font-family="Times,serif" font-size="14.00">value = [0, 1, 0]</text>
</g>
<!-- 13&#45;&gt;14 -->
<g id="edge14" class="edge"><title>13&#45;&gt;14</title>
<path fill="none" stroke="black" d="M674,-192.884C674,-182.326 674,-170.597 674,-159.854"/>
<polygon fill="black" stroke="black" points="677.5,-159.52 674,-149.52 670.5,-159.52 677.5,-159.52"/>
</g>
<!-- 15 -->
<g id="node16" class="node"><title>15</title>
<polygon fill="none" stroke="black" points="888.5,-149.5 757.5,-149.5 757.5,-96.5 888.5,-96.5 888.5,-149.5"/>
<text text-anchor="middle" x="823" y="-134.3" font-family="Times,serif" font-size="14.00">gini = 0.0</text>
<text text-anchor="middle" x="823" y="-119.3" font-family="Times,serif" font-size="14.00">samples = 3</text>
<text text-anchor="middle" x="823" y="-104.3" font-family="Times,serif" font-size="14.00">value = [0, 0, 3]</text>
</g>
<!-- 13&#45;&gt;15 -->
<g id="edge15" class="edge"><title>13&#45;&gt;15</title>
<path fill="none" stroke="black" d="M722.376,-192.884C740.048,-180.786 759.966,-167.151 777.389,-155.224"/>
<polygon fill="black" stroke="black" points="779.446,-158.057 785.721,-149.52 775.492,-152.281 779.446,-158.057"/>
</g>
</g>
</svg>
